<?xml version="1.0" standalone="no"?><!DOCTYPE svg PUBLIC "-//W3C//DTD SVG 1.1//EN" "http://www.w3.org/Graphics/SVG/1.1/DTD/svg11.dtd"><svg t="1693206220741" class="icon" viewBox="0 0 1024 1024" version="1.1" xmlns="http://www.w3.org/2000/svg" p-id="4304" xmlns:xlink="http://www.w3.org/1999/xlink" width="200" height="200"><path d="M152.496 328.128m-101.328 0a101.328 101.328 0 1 0 202.656 0 101.328 101.328 0 1 0-202.656 0Z" fill="#F9A287" p-id="4305"></path><path d="M70.672 348.128a101.328 101.328 0 0 1 101.328-101.328c23.392 0 44.864 8 62 21.312a101.104 101.104 0 0 0-81.504-41.312 101.328 101.328 0 0 0-101.328 101.328c0 32.576 15.44 61.488 39.328 80.032a100.8 100.8 0 0 1-19.824-60.032z" fill="#FCB7A4" p-id="4306"></path><path d="M152.512 437.472a109.44 109.44 0 0 1-109.328-109.344 109.44 109.44 0 0 1 109.328-109.328 109.44 109.44 0 0 1 109.328 109.328c0 60.288-49.056 109.344-109.328 109.344z m0-202.672c-51.472 0-93.328 41.856-93.328 93.328s41.872 93.344 93.328 93.344 93.328-41.872 93.328-93.344-41.872-93.328-93.328-93.328z" fill="#63312D" p-id="4307"></path><path d="M199.744 226.8H152.512a101.328 101.328 0 0 1 0 202.656h47.232a101.328 101.328 0 0 0 0-202.656z" fill="#DB785A" p-id="4308"></path><path d="M199.728 437.472H152.512a8 8 0 0 1 0-16c51.456 0 93.328-41.872 93.328-93.344s-41.872-93.328-93.328-93.328a8 8 0 0 1 0-16h47.232a109.44 109.44 0 0 1 109.328 109.328 109.472 109.472 0 0 1-109.344 109.344z m10.64-202.064a109.312 109.312 0 0 1 51.456 92.72 109.376 109.376 0 0 1-51.472 92.736 93.472 93.472 0 0 0 82.704-92.736 93.44 93.44 0 0 0-82.688-92.72z" fill="#63312D" p-id="4309"></path><path d="M152.496 695.872m-101.328 0a101.328 101.328 0 1 0 202.656 0 101.328 101.328 0 1 0-202.656 0Z" fill="#F9A287" p-id="4310"></path><path d="M70.672 715.872a101.328 101.328 0 0 1 101.328-101.328c23.392 0 44.864 8 62 21.312a101.104 101.104 0 0 0-81.504-41.312 101.328 101.328 0 0 0-101.328 101.328c0 32.576 15.44 61.488 39.328 80.032a100.8 100.8 0 0 1-19.824-60.032z" fill="#FCB7A4" p-id="4311"></path><path d="M152.512 805.2a109.44 109.44 0 0 1-109.328-109.328 109.44 109.44 0 0 1 109.328-109.344 109.44 109.44 0 0 1 109.328 109.344 109.456 109.456 0 0 1-109.328 109.328z m0-202.672c-51.472 0-93.328 41.872-93.328 93.344s41.872 93.328 93.328 93.328 93.328-41.856 93.328-93.328-41.872-93.344-93.328-93.344z" fill="#63312D" p-id="4312"></path><path d="M199.744 594.544H152.512a101.328 101.328 0 0 1 0 202.656h47.232a101.328 101.328 0 0 0 0-202.656z" fill="#DB785A" p-id="4313"></path><path d="M199.728 805.2H152.512a8 8 0 0 1 0-16c51.456 0 93.328-41.856 93.328-93.328s-41.872-93.344-93.328-93.344a8 8 0 0 1 0-16h47.232a109.44 109.44 0 0 1 109.328 109.344 109.456 109.456 0 0 1-109.344 109.328z m10.64-202.064a109.36 109.36 0 0 1 51.472 92.736 109.344 109.344 0 0 1-51.456 92.72 93.456 93.456 0 0 0 82.688-92.72 93.472 93.472 0 0 0-82.704-92.736z" fill="#63312D" p-id="4314"></path><path d="M824.256 512m-101.328 0a101.328 101.328 0 1 0 202.656 0 101.328 101.328 0 1 0-202.656 0Z" fill="#84DBFF" p-id="4315"></path><path d="M742.432 532a101.328 101.328 0 0 1 101.328-101.328c23.392 0 44.864 8 62 21.312a101.104 101.104 0 0 0-81.504-41.312A101.328 101.328 0 0 0 722.928 512c0 32.576 15.44 61.488 39.328 80.032a100.8 100.8 0 0 1-19.824-60.032z" fill="#A9EBFF" p-id="4316"></path><path d="M824.256 621.328c-60.288 0-109.328-49.04-109.328-109.328s49.04-109.328 109.328-109.328c60.288 0 109.328 49.04 109.328 109.328s-49.04 109.328-109.328 109.328z m0-202.656c-51.456 0-93.328 41.856-93.328 93.328s41.872 93.328 93.328 93.328c51.472 0 93.328-41.856 93.328-93.328s-41.856-93.328-93.328-93.328z" fill="#63312D" p-id="4317"></path><path d="M871.488 410.672h-47.232a101.328 101.328 0 0 1 0 202.656h47.232a101.328 101.328 0 0 0 0-202.656z" fill="#52BADB" p-id="4318"></path><path d="M871.488 621.328h-47.232a8 8 0 0 1 0-16c51.472 0 93.328-41.856 93.328-93.328s-41.872-93.328-93.328-93.328a8 8 0 0 1 0-16h47.232c60.288 0 109.328 49.04 109.328 109.328s-49.04 109.328-109.328 109.328z m10.64-202.048c30.88 19.328 51.472 53.68 51.472 92.72s-20.576 73.392-51.472 92.72c46.48-5.28 82.704-44.864 82.704-92.72s-36.224-87.44-82.704-92.72z" fill="#63312D" p-id="4319"></path><path d="M479.264 512m-101.328 0a101.328 101.328 0 1 0 202.656 0 101.328 101.328 0 1 0-202.656 0Z" fill="#F9DD9D" p-id="4320"></path><path d="M397.44 532a101.328 101.328 0 0 1 101.328-101.328c23.392 0 44.864 8 62 21.312a101.104 101.104 0 0 0-81.504-41.312A101.328 101.328 0 0 0 377.936 512c0 32.576 15.44 61.488 39.328 80.032a100.8 100.8 0 0 1-19.824-60.032z" fill="#FFE8BB" p-id="4321"></path><path d="M479.264 621.328c-60.288 0-109.328-49.04-109.328-109.328s49.04-109.328 109.328-109.328c60.288 0 109.328 49.04 109.328 109.328s-49.04 109.328-109.328 109.328z m0-202.656c-51.456 0-93.328 41.856-93.328 93.328s41.872 93.328 93.328 93.328c51.472 0 93.328-41.856 93.328-93.328s-41.856-93.328-93.328-93.328z" fill="#63312D" p-id="4322"></path><path d="M526.496 410.672h-47.232a101.328 101.328 0 0 1 0 202.656h47.232a101.328 101.328 0 0 0 0-202.656z" fill="#EFC36A" p-id="4323"></path><path d="M526.496 621.328h-47.232a8 8 0 0 1 0-16c51.472 0 93.328-41.856 93.328-93.328s-41.872-93.328-93.328-93.328a8 8 0 0 1 0-16h47.232c60.288 0 109.328 49.04 109.328 109.328s-49.04 109.328-109.328 109.328z m10.64-202.048c30.896 19.328 51.472 53.664 51.472 92.72s-20.576 73.392-51.472 92.72c46.48-5.28 82.704-44.864 82.704-92.72s-36.224-87.44-82.704-92.72z" fill="#63312D" p-id="4324"></path><path d="M479.264 150.672m-101.328 0a101.328 101.328 0 1 0 202.656 0 101.328 101.328 0 1 0-202.656 0Z" fill="#F9DD9D" p-id="4325"></path><path d="M397.44 170.672a101.328 101.328 0 0 1 101.328-101.328c23.392 0 44.864 8 62 21.312a101.104 101.104 0 0 0-81.504-41.312 101.328 101.328 0 0 0-101.328 101.328c0 32.576 15.44 61.488 39.328 80.032a100.832 100.832 0 0 1-19.824-60.032z" fill="#FFE8BB" p-id="4326"></path><path d="M479.264 260a109.44 109.44 0 0 1-109.328-109.328 109.44 109.44 0 0 1 109.328-109.344 109.44 109.44 0 0 1 109.328 109.344c0.016 60.288-49.04 109.328-109.328 109.328z m0-202.672c-51.456 0-93.328 41.872-93.328 93.344s41.872 93.328 93.328 93.328c51.472 0 93.328-41.856 93.328-93.328s-41.856-93.344-93.328-93.344z" fill="#63312D" p-id="4327"></path><path d="M526.496 49.328h-47.232a101.328 101.328 0 0 1 0 202.656h47.232a101.328 101.328 0 0 0 0-202.656z" fill="#EFC36A" p-id="4328"></path><path d="M526.496 260h-47.232a8 8 0 0 1 0-16c51.472 0 93.328-41.856 93.328-93.328s-41.872-93.344-93.328-93.344a8 8 0 0 1 0-16h47.232a109.44 109.44 0 0 1 109.328 109.344c0.016 60.288-49.04 109.328-109.328 109.328z m10.64-202.064a109.328 109.328 0 0 1 51.472 92.736 109.312 109.312 0 0 1-51.472 92.72 93.456 93.456 0 0 0 82.704-92.72 93.456 93.456 0 0 0-82.704-92.736z" fill="#63312D" p-id="4329"></path><path d="M479.264 873.328m-101.328 0a101.328 101.328 0 1 0 202.656 0 101.328 101.328 0 1 0-202.656 0Z" fill="#F9DD9D" p-id="4330"></path><path d="M397.44 893.328a101.328 101.328 0 0 1 101.328-101.328c23.392 0 44.864 8 62 21.312a101.104 101.104 0 0 0-81.504-41.312 101.328 101.328 0 0 0-101.328 101.328c0 32.576 15.44 61.488 39.328 80.032a100.8 100.8 0 0 1-19.824-60.032z" fill="#FFE8BB" p-id="4331"></path><path d="M479.264 982.672a109.44 109.44 0 0 1-109.328-109.344 109.44 109.44 0 0 1 109.328-109.328 109.44 109.44 0 0 1 109.328 109.328 109.44 109.44 0 0 1-109.328 109.344z m0-202.672c-51.456 0-93.328 41.856-93.328 93.328s41.872 93.344 93.328 93.344c51.472 0 93.328-41.872 93.328-93.344s-41.856-93.328-93.328-93.328z" fill="#63312D" p-id="4332"></path><path d="M526.496 772h-47.232a101.328 101.328 0 0 1 0 202.656h47.232a101.328 101.328 0 0 0 0-202.656z" fill="#EFC36A" p-id="4333"></path><path d="M526.496 982.672h-47.232a8 8 0 0 1 0-16c51.472 0 93.328-41.872 93.328-93.344s-41.872-93.328-93.328-93.328a8 8 0 0 1 0-16h47.232a109.44 109.44 0 0 1 109.328 109.328 109.44 109.44 0 0 1-109.328 109.344z m10.64-202.064a109.296 109.296 0 0 1 51.472 92.72 109.344 109.344 0 0 1-51.472 92.736 93.456 93.456 0 0 0 82.704-92.736 93.456 93.456 0 0 0-82.704-92.72zM246.432 361.728l8.704-13.44 144.544 93.632-8.704 13.44zM246.416 662.24l144.56-93.616 8.704 13.44-144.544 93.616z" fill="#63312D" p-id="4334"></path><path d="M230.08 386.96l14.512-6.768L433.28 783.824l-14.496 6.784z" fill="#63312D" p-id="4335"></path><path d="M230.048 637.024l188.736-403.6 14.496 6.784-188.736 403.584zM230.08 260.56l149.28-85.056 7.92 13.92-149.28 85.04zM230.064 763.44l7.904-13.92 149.312 85.024-7.92 13.904zM580.608 504h142.912v16h-142.912zM573.232 168.112l12.656-9.808 196.432 253.632-12.656 9.808zM573.168 855.856l196.56-253.536 12.656 9.808-196.56 253.536z" fill="#63312D" p-id="4336"></path></svg>